<svg xmlns="http://www.w3.org/2000/svg" xmlns:xlink="http://www.w3.org/1999/xlink" width="100" zoomAndPan="magnify" viewBox="0 0 75 74.999997" height="100" preserveAspectRatio="xMidYMid meet" version="1.0"><defs><clipPath id="id1"><path d="M 6 50 L 18 50 L 18 60.796875 L 6 60.796875 Z M 6 50 " clip-rule="nonzero"/></clipPath><clipPath id="id2"><path d="M 17 14.296875 L 33 14.296875 L 33 44 L 17 44 Z M 17 14.296875 " clip-rule="nonzero"/></clipPath><clipPath id="id3"><path d="M 2 14.296875 L 20 14.296875 L 20 41 L 2 41 Z M 2 14.296875 " clip-rule="nonzero"/></clipPath><clipPath id="id4"><path d="M 57 50 L 69 50 L 69 60.796875 L 57 60.796875 Z M 57 50 " clip-rule="nonzero"/></clipPath></defs><path fill="#000000" d="M 13.394531 55.394531 C 13.394531 55.574219 13.359375 55.746094 13.289062 55.910156 C 13.222656 56.074219 13.125 56.21875 13 56.34375 C 12.875 56.46875 12.730469 56.566406 12.566406 56.636719 C 12.402344 56.703125 12.230469 56.738281 12.054688 56.738281 C 11.875 56.738281 11.707031 56.703125 11.542969 56.636719 C 11.378906 56.566406 11.230469 56.46875 11.105469 56.34375 C 10.980469 56.21875 10.882812 56.074219 10.816406 55.910156 C 10.75 55.746094 10.714844 55.574219 10.714844 55.394531 C 10.714844 55.21875 10.75 55.046875 10.816406 54.882812 C 10.882812 54.71875 10.980469 54.570312 11.105469 54.445312 C 11.230469 54.320312 11.378906 54.222656 11.542969 54.15625 C 11.707031 54.085938 11.875 54.054688 12.054688 54.054688 C 12.230469 54.054688 12.402344 54.085938 12.566406 54.15625 C 12.730469 54.222656 12.875 54.320312 13 54.445312 C 13.125 54.570312 13.222656 54.71875 13.289062 54.882812 C 13.359375 55.046875 13.394531 55.21875 13.394531 55.394531 Z M 13.394531 55.394531 " fill-opacity="1" fill-rule="nonzero"/><path fill="#000000" d="M 6.667969 38.585938 L 3.566406 48.683594 L 7.617188 48.683594 C 8.890625 47.839844 10.414062 47.34375 12.054688 47.34375 C 12.957031 47.34375 13.824219 47.496094 14.636719 47.773438 L 10.003906 41.070312 Z M 6.667969 38.585938 " fill-opacity="1" fill-rule="nonzero"/><path fill="#000000" d="M 0 54.054688 L 4.132812 54.054688 C 4.292969 53.089844 4.625 52.183594 5.097656 51.371094 L 0 51.371094 Z M 0 54.054688 " fill-opacity="1" fill-rule="nonzero"/><path fill="#000000" d="M 36.160156 44.660156 C 36.160156 44.621094 36.164062 44.585938 36.164062 44.546875 L 35.128906 45 C 33.617188 45.664062 32 46.003906 30.371094 46.003906 C 29.675781 46.003906 28.980469 45.941406 28.292969 45.820312 L 15.421875 43.535156 C 15.246094 43.503906 15.066406 43.46875 14.890625 43.429688 L 18.523438 48.683594 L 37.242188 48.683594 C 36.554688 47.5 36.160156 46.125 36.160156 44.660156 Z M 36.160156 44.660156 " fill-opacity="1" fill-rule="nonzero"/><g clip-path="url(#id1)"><path fill="#000000" d="M 12.054688 50.027344 C 9.097656 50.027344 6.695312 52.433594 6.695312 55.394531 C 6.695312 58.355469 9.097656 60.761719 12.054688 60.761719 C 15.007812 60.761719 17.410156 58.355469 17.410156 55.394531 C 17.410156 52.433594 15.007812 50.027344 12.054688 50.027344 Z M 12.054688 59.421875 C 9.839844 59.421875 8.035156 57.617188 8.035156 55.394531 C 8.035156 53.175781 9.839844 51.371094 12.054688 51.371094 C 14.269531 51.371094 16.070312 53.175781 16.070312 55.394531 C 16.070312 57.617188 14.269531 59.421875 12.054688 59.421875 Z M 12.054688 59.421875 " fill-opacity="1" fill-rule="nonzero"/></g><path fill="#000000" d="M 34.054688 42.542969 L 36.898438 41.292969 C 37.519531 39.945312 38.5 38.796875 39.71875 37.976562 L 42.308594 23.324219 C 42.328125 23.210938 42.289062 23.101562 42.210938 23.023438 L 38.183594 19.164062 C 37.320312 18.335938 36.316406 17.691406 35.21875 17.257812 L 30.617188 43.3125 C 31.792969 43.28125 32.960938 43.023438 34.054688 42.542969 Z M 34.054688 42.542969 " fill-opacity="1" fill-rule="nonzero"/><path fill="#000000" d="M 48.214844 37.691406 L 48.214844 33.007812 L 43.621094 31.28125 L 42.65625 36.757812 C 43.152344 36.660156 43.667969 36.609375 44.195312 36.609375 C 45.660156 36.609375 47.03125 37.003906 48.214844 37.691406 Z M 48.214844 37.691406 " fill-opacity="1" fill-rule="nonzero"/><g clip-path="url(#id2)"><path fill="#000000" d="M 17.394531 41.160156 L 22.0625 14.730469 L 32.613281 16.601562 L 27.945312 43.03125 Z M 17.394531 41.160156 " fill-opacity="1" fill-rule="nonzero"/></g><g clip-path="url(#id3)"><path fill="#000000" d="M 2.8125 32.375 L 12.003906 39.214844 C 12.839844 39.835938 13.777344 40.308594 14.769531 40.617188 L 19.414062 14.335938 C 19.261719 14.328125 19.109375 14.324219 18.960938 14.324219 C 18.074219 14.324219 17.183594 14.453125 16.335938 14.703125 L 5.359375 17.96875 C 5.238281 18.003906 5.148438 18.105469 5.125 18.230469 L 2.683594 32.046875 C 2.660156 32.171875 2.710938 32.296875 2.8125 32.375 Z M 2.8125 32.375 " fill-opacity="1" fill-rule="nonzero"/></g><path fill="#000000" d="M 44.195312 39.292969 C 41.242188 39.292969 38.839844 41.699219 38.839844 44.660156 C 38.839844 47.621094 41.242188 50.027344 44.195312 50.027344 C 47.148438 50.027344 49.554688 47.621094 49.554688 44.660156 C 49.554688 41.699219 47.148438 39.292969 44.195312 39.292969 Z M 44.195312 47.34375 C 42.71875 47.34375 41.519531 46.140625 41.519531 44.660156 C 41.519531 43.179688 42.71875 41.976562 44.195312 41.976562 C 45.671875 41.976562 46.875 43.179688 46.875 44.660156 C 46.875 46.140625 45.671875 47.34375 44.195312 47.34375 Z M 44.195312 47.34375 " fill-opacity="1" fill-rule="nonzero"/><path fill="#000000" d="M 72.320312 42.4375 L 72.320312 44.199219 C 72.320312 44.453125 72.527344 44.660156 72.78125 44.660156 L 75 44.660156 L 75 41.976562 L 72.78125 41.976562 C 72.527344 41.976562 72.320312 42.183594 72.320312 42.4375 Z M 72.320312 42.4375 " fill-opacity="1" fill-rule="nonzero"/><path fill="#000000" d="M 70.867188 54.054688 L 75 54.054688 L 75 51.371094 L 69.902344 51.371094 C 70.375 52.183594 70.707031 53.089844 70.867188 54.054688 Z M 70.867188 54.054688 " fill-opacity="1" fill-rule="nonzero"/><path fill="#000000" d="M 44.195312 52.710938 C 42.558594 52.710938 41.03125 52.214844 39.761719 51.371094 L 19.007812 51.371094 C 19.480469 52.183594 19.8125 53.089844 19.976562 54.054688 L 55.023438 54.054688 C 55.1875 53.089844 55.519531 52.183594 55.992188 51.371094 L 48.632812 51.371094 C 47.359375 52.214844 45.835938 52.710938 44.195312 52.710938 Z M 44.195312 52.710938 " fill-opacity="1" fill-rule="nonzero"/><path fill="#000000" d="M 54.910156 27.214844 L 54.910156 32.582031 L 61.367188 32.582031 L 60.472656 27.214844 Z M 54.910156 27.214844 " fill-opacity="1" fill-rule="nonzero"/><g clip-path="url(#id4)"><path fill="#000000" d="M 62.945312 50.027344 C 59.992188 50.027344 57.589844 52.433594 57.589844 55.394531 C 57.589844 58.355469 59.992188 60.761719 62.945312 60.761719 C 65.898438 60.761719 68.304688 58.355469 68.304688 55.394531 C 68.304688 52.433594 65.898438 50.027344 62.945312 50.027344 Z M 62.945312 59.421875 C 60.730469 59.421875 58.929688 57.617188 58.929688 55.394531 C 58.929688 53.175781 60.730469 51.371094 62.945312 51.371094 C 65.160156 51.371094 66.964844 53.175781 66.964844 55.394531 C 66.964844 57.617188 65.160156 59.421875 62.945312 59.421875 Z M 62.945312 59.421875 " fill-opacity="1" fill-rule="nonzero"/></g><path fill="#000000" d="M 73.839844 37.316406 C 73.832031 37.3125 73.828125 37.3125 73.820312 37.308594 L 66.589844 35.210938 C 66.070312 35.0625 65.691406 34.609375 65.632812 34.070312 L 64.542969 24.246094 C 64.476562 23.644531 63.96875 23.1875 63.363281 23.1875 L 50.894531 23.1875 L 50.894531 40.214844 C 51.738281 41.488281 52.230469 43.019531 52.230469 44.660156 C 52.230469 46.125 51.835938 47.5 51.152344 48.683594 L 58.511719 48.683594 C 59.78125 47.839844 61.308594 47.34375 62.945312 47.34375 C 64.585938 47.34375 66.109375 47.839844 67.382812 48.683594 L 75 48.683594 L 75 47.34375 L 72.78125 47.34375 C 71.050781 47.34375 69.644531 45.933594 69.644531 44.199219 L 69.644531 42.4375 C 69.644531 40.703125 71.050781 39.292969 72.78125 39.292969 L 75 39.292969 L 75 38.835938 C 75 38.128906 74.523438 37.503906 73.839844 37.316406 Z M 56.25 40.632812 L 53.570312 40.632812 C 52.832031 40.632812 52.230469 40.03125 52.230469 39.292969 C 52.230469 38.550781 52.832031 37.949219 53.570312 37.949219 L 56.25 37.949219 C 56.988281 37.949219 57.589844 38.550781 57.589844 39.292969 C 57.589844 40.03125 56.988281 40.632812 56.25 40.632812 Z M 63.96875 34.789062 C 63.714844 35.09375 63.339844 35.265625 62.945312 35.265625 L 53.570312 35.265625 C 52.832031 35.265625 52.230469 34.664062 52.230469 33.921875 L 52.230469 25.871094 C 52.230469 25.128906 52.832031 24.53125 53.570312 24.53125 L 61.605469 24.53125 C 62.261719 24.53125 62.820312 25.003906 62.929688 25.652344 L 64.265625 33.703125 C 64.332031 34.09375 64.222656 34.488281 63.96875 34.789062 Z M 63.96875 34.789062 " fill-opacity="1" fill-rule="nonzero"/><path fill="#000000" d="M 64.285156 55.394531 C 64.285156 55.574219 64.25 55.746094 64.183594 55.910156 C 64.117188 56.074219 64.019531 56.21875 63.894531 56.34375 C 63.769531 56.46875 63.621094 56.566406 63.457031 56.636719 C 63.292969 56.703125 63.125 56.738281 62.945312 56.738281 C 62.769531 56.738281 62.597656 56.703125 62.433594 56.636719 C 62.269531 56.566406 62.125 56.46875 62 56.34375 C 61.875 56.21875 61.777344 56.074219 61.710938 55.910156 C 61.640625 55.746094 61.605469 55.574219 61.605469 55.394531 C 61.605469 55.21875 61.640625 55.046875 61.710938 54.882812 C 61.777344 54.71875 61.875 54.570312 62 54.445312 C 62.125 54.320312 62.269531 54.222656 62.433594 54.15625 C 62.597656 54.085938 62.769531 54.054688 62.945312 54.054688 C 63.125 54.054688 63.292969 54.085938 63.457031 54.15625 C 63.621094 54.222656 63.769531 54.320312 63.894531 54.445312 C 64.019531 54.570312 64.117188 54.71875 64.183594 54.882812 C 64.25 55.046875 64.285156 55.21875 64.285156 55.394531 Z M 64.285156 55.394531 " fill-opacity="1" fill-rule="nonzero"/></svg>