<?xml version="1.0" encoding="utf-8"?>
<!-- Generator: Adobe Illustrator 17.0.0, SVG Export Plug-In . SVG Version: 6.00 Build 0)  -->
<!DOCTYPE svg PUBLIC "-//W3C//DTD SVG 1.1//EN" "http://www.w3.org/Graphics/SVG/1.1/DTD/svg11.dtd">
<svg version="1.1" xmlns="http://www.w3.org/2000/svg" xmlns:xlink="http://www.w3.org/1999/xlink" x="0px" y="0px" width="3000px"
	 height="2000px" viewBox="0 0 3000 2000" enable-background="new 0 0 3000 2000" xml:space="preserve">
<g id="BACKGROUND">
	<rect fill="#FFFFFF" width="3000" height="2000"/>
</g>
<g id="OBJECTS">
	<g>
		<g>
			<path fill="#DADADA" d="M1423.321,467.906l-3.254-3.869c0.894-0.755,91.03-75.784,221.288-113.837
				c120.348-35.169,300.556-45.124,475.549,107.119l-3.318,3.817c-173.211-150.685-351.533-140.889-470.646-106.132
				C1513.66,392.729,1424.21,467.158,1423.321,467.906z"/>
			<path fill="#F6F5F5" d="M2813.373,1440.219c-18.799-200.297-96.436-352.329-297.594-463.835
				c-59.325-32.885-133.603-48.953-169.169-106.71c-35.312-57.345-22.195-130.575-29.193-197.555
				c-17.954-171.851-182.177-304.734-354.003-322.92c-171.827-18.186-342.76,59.631-473.278,172.856
				c-97.931,84.955-183.713,193.406-307.102,233.191c-203.476,65.607-424.878-80.743-633.686-34.852
				c-112.364,24.695-206.622,103.362-275.459,195.54c-115.188,154.247-143.903,349.274-108.673,538.534
				c19.272,103.532,66.415,208.457,133.991,289.049l2421.103-5.056C2791.096,1667.673,2821.433,1526.098,2813.373,1440.219z"/>
			<circle fill="#F6F5F5" cx="1078.698" cy="481.152" r="187.068"/>
			<circle fill="#F6F5F5" cx="1390.514" cy="314.283" r="77.529"/>
			<circle fill="#F6F5F5" cx="2577.048" cy="855.302" r="77.529"/>
			<path fill="#DADADA" d="M2801.755,1741.331l-4.464-2.37c90.944-171.424,100.572-355.695,26.417-505.561
				c-77.962-157.563-258.4-317.473-469.375-352.4l-10.235-15.586c212.619,35.199,405.435,206.684,484.138,365.744
				C2903.127,1382.5,2893.473,1568.451,2801.755,1741.331z"/>
			<path fill="#DADADA" d="M313.365,1748.604c-109.549-117.973-181.832-260.051-209.037-410.875
				c-25.331-140.439-8.962-279.792,46.091-392.383C235.472,771.409,415,655.25,647.242,711.406l-43.028,1.103
				c-199.727-17.445-365.172,63.102-449.252,235.059c-54.584,111.633-70.8,249.875-45.657,389.262
				c27.032,149.87,98.876,291.07,207.763,408.337L313.365,1748.604z"/>
		</g>
		<g>
			<rect x="607.263" y="1376.952" fill="#21B4BF" width="650.571" height="366.208"/>
			<rect x="607.263" y="1376.952" opacity="0.5" fill="#0995BA" width="233.105" height="366.208"/>
		</g>
		<g>
			<rect x="1129.334" y="977.98" fill="#102048" width="1074.651" height="765.18"/>
			<g>
				<path fill="#86A7FF" d="M2308.625,707.457h-198.812V525.988c0-36.607,29.68-66.287,66.287-66.287
					c18.304,0,34.888,7.433,46.872,19.416c11.832,11.832,19.264,28.214,19.416,46.265v0.607l-0.05,115.181
					c0,0.557,0,1.163,0.05,1.719v3.489l0.203-0.101C2245.169,680.507,2273.737,707.457,2308.625,707.457z"/>
				<path fill="#D3DFFF" d="M2374.862,601.124v40.096c0,18.304-7.382,34.888-19.416,46.821
					c-11.933,12.034-28.517,19.416-46.821,19.416c-34.888,0-63.456-26.95-66.034-61.181L2374.862,601.124z"/>
				<path fill="#D3DFFF" d="M2176.1,459.701c-1.416,0-2.781,0.05-4.146,0.152c-0.91,0.051-1.77,0.101-2.629,0.202
					c-0.961,0.101-1.871,0.202-2.832,0.354c-0.556,0.051-1.113,0.152-1.668,0.253c-0.708,0.101-1.416,0.253-2.073,0.404
					c-1.011,0.202-1.972,0.405-2.983,0.657c-1.416,0.354-2.832,0.759-4.247,1.264c-0.708,0.203-1.416,0.455-2.073,0.708
					c-0.657,0.202-1.365,0.505-2.023,0.759c-0.961,0.354-1.871,0.758-2.781,1.213c-0.809,0.354-1.618,0.708-2.427,1.163
					c-0.202,0.101-0.455,0.202-0.708,0.354c-0.708,0.354-1.416,0.759-2.124,1.163c-2.781,1.567-5.461,3.337-7.938,5.309
					c-0.708,0.556-1.466,1.163-2.124,1.719c-0.809,0.657-1.517,1.315-2.275,2.023c-0.759,0.708-1.467,1.416-2.174,2.124
					c-1.972,2.022-3.843,4.146-5.562,6.421c-0.758,1.011-1.466,1.972-2.174,2.983c-2.225,3.388-4.146,6.927-5.814,10.669
					c-0.405,0.91-0.759,1.871-1.163,2.832c-1.062,2.882-1.972,5.865-2.68,8.899c-0.202,1.062-0.405,2.073-0.607,3.084
					c-0.354,2.073-0.657,4.197-0.809,6.32v929.845h-886.209V563.05c0-57.085,46.265-103.35,103.35-103.35H2176.1z"/>
				<g>
					<rect x="1328.622" y="554.455" fill="#ADC3FF" width="672.482" height="35.394"/>
					<rect x="1328.622" y="658.108" fill="#ADC3FF" width="620.374" height="35.394"/>
					<rect x="1328.622" y="761.761" fill="#ADC3FF" width="587.666" height="35.394"/>
					<rect x="1328.622" y="865.414" fill="#ADC3FF" width="672.482" height="35.394"/>
					<rect x="1331.378" y="970.332" fill="#ADC3FF" width="491.622" height="35.394"/>
				</g>
				<path display="none" fill="#102048" d="M1661.868,1169.071c-4.024,0-7.725-1.368-10.271-4.874
					c-3.121-4.316-2.901-10.231-2.753-14.142l3.432-91.462l5.051,0.188l-3.432,91.462c-0.158,4.261-0.141,8.31,1.797,10.986
					c4.298,5.93,14.633,0.8,16.665-0.291c10.184-5.461,17.492-15.737,24.56-25.676c7.861-11.046,15.988-22.472,28.283-27.839
					c7.293-3.19,12.656,1.486,16.971,5.224c2.449,2.123,4.76,4.123,7.204,4.849c6.429,1.896,12.828,0.237,19.603-1.536
					c5.984-1.565,12.191-3.2,18.556-2.212c5.827,0.889,10.527,3.209,15.08,5.456c6.715,3.318,12.532,6.187,20.926,4.148
					c11.579-2.79,22.338-9.382,32.742-15.756c3.017-1.847,6.024-3.693,9.061-5.456c11.693-6.794,29.266-15.361,46.75-11.352
					l-1.126,4.928c-15.771-3.604-32.14,4.429-43.087,10.799c-2.997,1.743-5.975,3.565-8.957,5.392
					c-10.74,6.582-21.845,13.386-34.199,16.364c-10.187,2.449-17.396-1.091-24.353-4.533c-4.202-2.074-8.547-4.222-13.599-4.992
					c-5.343-0.81-10.769,0.607-16.517,2.104c-7.145,1.866-14.512,3.797-22.319,1.496c-3.491-1.037-6.335-3.496-9.081-5.876
					c-4.513-3.911-7.476-6.212-11.638-4.414c-11.006,4.809-18.378,15.169-26.182,26.141c-7.407,10.409-15.065,21.178-26.291,27.197
					C1670.758,1167.535,1666.132,1169.071,1661.868,1169.071z"/>
				<path opacity="0.3" fill="#86A7FF" d="M2110.066,1010.023v440.551h-886.209V971.646l276.83,230.312
					c15.27,12.741,35.293,17.596,55.012,14.815c5.714-0.809,11.579-1.113,17.444-0.961l188.699,5.309
					c6.523,0.202,12.995,1.011,19.315,2.377c19.568,4.247,40.045,0.354,56.175-11.579L2110.066,1010.023z"/>
			</g>
			<g>
				<polygon fill="#7D69ED" points="1533.4,1295.196 1526.018,1303.387 1192.508,1673.201 1129.355,1743.18 1129.355,977.967 				
					"/>
				<polygon fill="#7D69ED" points="2203.986,977.98 1799.92,1295.196 2203.986,1743.16 				"/>
				<path fill="#5B4DAD" d="M1526.018,1303.387l-333.51,369.814l-63.152,13.905v-135.963
					c166.704-119.479,353.735-258.021,396.461-261.004L1526.018,1303.387z"/>
				<path fill="#5B4DAD" d="M1807.323,1303.387l333.51,369.814l63.152,13.905v-135.963
					c-166.704-119.479-353.735-258.021-396.46-261.004L1807.323,1303.387z"/>
				<path fill="#7D69ED" d="M2203.986,1743.16H1129.334l0.198-100.662l370.303-335.934c19.431-17.627,44.727-27.392,70.962-27.392
					h188.783c25.844,0,50.79,9.476,70.116,26.633l375.343,333.217L2203.986,1743.16z"/>
			</g>
		</g>
		<g>
			<circle opacity="0.4" fill="#5B4DAD" cx="2132.566" cy="1558.607" r="184.553"/>
			<g>
				<g>
					<circle fill="#33A968" cx="2188.185" cy="1558.607" r="184.553"/>
				</g>
				<g>
					<path fill="#FFFFFF" d="M2184.23,1658.609c-8.76,0-17.154-3.669-23.158-10.295l-65.287-72.096
						c-5.624-6.207-5.15-15.801,1.062-21.425c6.217-5.624,15.806-5.15,21.425,1.062l65.287,72.091
						c0.133,0.143,0.375,0.38,0.879,0.306c0.518-0.084,0.652-0.39,0.731-0.568l70.284-160.003c3.367-7.673,12.3-11.154,19.988-7.792
						c7.673,3.372,11.159,12.32,7.792,19.988l-70.284,160.003c-4.286,9.757-13.125,16.606-23.642,18.314
						C2187.612,1658.471,2185.914,1658.609,2184.23,1658.609z"/>
				</g>
			</g>
		</g>
		<g display="none">
			<g display="inline">
				<polygon fill="#102048" points="679.267,1274.971 685.166,1376.939 841.91,1376.939 771.123,1318.792 766.909,1274.971 
					739.1,1248.004 				"/>
				<g>
					<polygon fill="#102048" points="491.343,1229.465 466.062,1320.477 594.997,1376.939 557.075,1290.982 566.344,1252.218 
						534.321,1210.082 					"/>
					<path fill="#1F3C88" d="M541.063,777.773c0,0-15.169,63.203-10.112,202.25c0,0-44.664,155.901-39.607,249.442l75.001,22.753
						c39.293-87.312,71.61-171.311,88.791-248.122c8.569-27.161,8.406-56.325-0.465-83.389l-36.078-110.068L541.063,777.773z"/>
				</g>
				<path fill="#3A6BEA" d="M778.791,982.922l-11.882,292.049h-87.625c-22.854-95.108-31.349-176.312-34.332-230.717
					c-2.478-45.86-1.062-72.658-1.062-72.658c-56.326-66.49-89.799-114.524-109.266-150.07
					c-28.922-52.737-27.152-78.119-23.916-96.018c4.348-23.815,19.82-54.658,30.287-73.619
					c5.865-10.517,10.163-17.394,10.163-17.394l146.631,47.226l-17.495,63.254l-0.303,1.062c-2.629,9.505-1.315,19.719,3.59,28.264
					l76.905,133.94C773.482,930.893,779.853,956.781,778.791,982.922z"/>
				<path fill="#1F3C88" d="M733.204,1276.867c-0.042,0-0.081,0-0.121-0.005c-1.047-0.064-1.839-0.968-1.773-2.01
					c0.183-2.928,18.257-293.32-3.202-339.539c-3.77-8.118-10.162-18.479-17.564-30.476
					c-30.974-50.204-82.816-134.23-71.931-255.326c0.091-1.044,0.99-1.832,2.059-1.718c1.042,0.094,1.812,1.015,1.718,2.059
					c-10.772,119.837,40.655,203.191,71.38,252.993c7.466,12.1,13.912,22.551,17.778,30.873
					c21.862,47.086,4.303,329.377,3.543,341.371C735.031,1276.097,734.197,1276.867,733.204,1276.867z"/>
				<path opacity="0.6" fill="#1F3C88" d="M697.79,681.721l-17.495,63.254c-67.45-27.759-116.041-69.979-139.3-93.086
					c5.865-10.517,10.163-17.394,10.163-17.394L697.79,681.721z"/>
				<path fill="#FFFFFF" d="M722.571,1322.877l-1.491-25.331l48.323-0.874c1.254,0.02,1.911,0.815,1.931,1.862
					c0.02,1.047-0.815,1.911-1.861,1.931l-44.373,0.805l1.037,17.647l44.901-2.019c1.012-0.045,1.936,0.765,1.98,1.812
					c0.047,1.047-0.763,1.931-1.807,1.98L722.571,1322.877z"/>
				<path fill="#FFFFFF" d="M557.075,1292.88c-0.19,0-0.385-0.03-0.575-0.089l-41.598-13.278l10.377-24.21l36.655,13.248
					c0.985,0.356,1.494,1.442,1.138,2.429c-0.356,0.983-1.444,1.506-2.427,1.136l-33.293-12.033l-7.32,17.089l37.618,12.004
					c1,0.321,1.55,1.388,1.232,2.385C558.623,1292.367,557.877,1292.88,557.075,1292.88z"/>
			</g>
			<g display="inline">
				<polygon fill="#F9B384" points="749.617,401.907 746.886,412.121 735.965,453.431 728.583,481.139 662.851,457.526 
					694.554,392.655 710.026,370.306 				"/>
				<path fill="#102048" d="M746.886,412.121l-10.921,41.31c-19.365-21.034-15.422-47.276-15.422-47.276L746.886,412.121z"/>
				<path fill="#F9B384" d="M798.932,343.778c0,0-4.214,93.541-51.405,85.535s-46.349-88.484-46.349-88.484l61.518-19.804
					L798.932,343.778z"/>
				<path fill="#102048" d="M733.411,357.893c0,0,27.072-27.915,65.521-14.115c0,0,16.959,7.163,23.596-6.742
					c0,0-54.355-72.052-97.017-37.29c0,0-76.476,16.749-30.97,92.909L733.411,357.893z"/>
				
					<ellipse transform="matrix(0.9875 -0.1575 0.1575 0.9875 -47.5268 120.1058)" fill="#F9B384" cx="734.238" cy="360" rx="14.52" ry="16.644"/>
				<circle fill="#F9B384" cx="792.19" cy="390.969" r="8.427"/>
				<circle opacity="0.4" fill="#EB5D60" cx="759.535" cy="382.332" r="14.537"/>
			</g>
			<path display="inline" fill="#F9B384" d="M1032.363,533.623c0,0,8.697,11.933-9.051,23.865c0,0,14.107,9.658-34.534,25.585
				c-5.41,1.77-11.579,3.59-18.658,5.512l-19.517-70.889c0,0,86.816-29.326,88.99-19.922c2.174,9.405-15.523,22.096-15.523,22.096
				S1055.166,512.235,1032.363,533.623z"/>
			<path display="inline" fill="#FBC343" d="M950.607,517.685l-102.798,13.174c0,0-147.895-105.339-178.233-95.226
				C639.239,445.745,536.85,610.074,536.85,610.074s-27.809,8.848-26.545,20.225c1.264,11.377,180.761,104.496,204.778,80.9
				c15.103-14.838,32.444-133.148,32.444-133.148l65.411,27.206c19.394,8.066,40.819,9.891,61.298,5.22l95.91-21.876
				L950.607,517.685z"/>
			<g display="inline" opacity="0.8">
				<path fill="#FFFFFF" d="M944.105,581.015c-3.531-13.803-6.977-27.274-10.113-40.225c-0.871-3.607-1.671-7.291-2.474-10.989
					c-0.68-3.129-1.383-6.268-2.117-9.398l-3.784,0.485c0.763,3.232,1.492,6.479,2.195,9.716c0.81,3.73,1.615,7.444,2.496,11.08
					c3.138,12.966,6.587,26.452,10.122,40.27c1.078,4.213,2.158,8.45,3.237,12.687l3.698-0.843
					C946.28,589.528,945.191,585.259,944.105,581.015z"/>
				<path fill="#FFFFFF" d="M768.121,478.266c-1.562,0.333-3.122,0.683-4.685,1.009c-28.488,5.938-58.959,10.737-88.766,5.696
					c-15.108-2.556-29.014-7.789-40.865-15.056c-0.799,0.984-1.592,1.955-2.402,2.967c12.355,7.658,26.869,13.161,42.634,15.827
					c30.424,5.145,61.32,0.286,90.173-5.72c2.86-0.596,5.719-1.23,8.578-1.848C771.237,480.18,769.684,479.223,768.121,478.266z"/>
				<path fill="#FFFFFF" d="M728.74,660.402c-8.56,0.708-17.408,1.444-26.007,0.642c-25.254-2.353-47.654-18.062-62.307-29.676
					c-5.194-4.116-10.28-8.392-15.366-12.668c-12.939-10.875-26.318-22.124-41.383-30.505c-8.692-4.834-17.512-8.265-26.179-10.384
					c-0.747,1.147-1.446,2.224-2.161,3.327c8.736,2.002,17.679,5.467,26.499,10.371c14.744,8.207,27.982,19.334,40.786,30.096
					c5.113,4.298,10.229,8.599,15.45,12.737c15.031,11.912,38.053,28.032,64.312,30.481c8.927,0.825,17.949,0.084,26.671-0.639
					c0.864-0.072,1.728-0.11,2.591-0.18c0.296-1.279,0.589-2.566,0.88-3.862C731.264,660.24,730.002,660.297,728.74,660.402z"/>
			</g>
			<path display="inline" fill="#E49B31" d="M747.527,578.051L720.9,566.373c0,0,6.799,42.304,19.641,48.347L747.527,578.051z"/>
			<path display="inline" fill="#E28B6D" d="M988.778,583.073c-5.41,1.77-11.579,3.59-18.658,5.512l-19.517-70.889L988.778,583.073z
				"/>
		</g>
		<g display="none">
			<g display="inline">
				<g>
					<path fill="#E28B6D" d="M2158.643,1010.782l61.939,27.809l46.157-151.942l-60.456-15.889
						C2190.305,906.476,2174.015,952.194,2158.643,1010.782z"/>
					<path fill="#102048" d="M2206.283,870.76l60.456,15.889l51.597-141.742C2318.336,744.907,2255.976,736.48,2206.283,870.76z"/>
				</g>
				<polygon fill="#102048" points="2132.94,958.112 2088.277,1081.148 2255.133,1145.194 2288.841,1017.102 				"/>
				<path fill="#E28B6D" d="M2187.834,1122.066c-1.215,3.479-11.203,7.643-17.614,1.954c-12.486-2.212-20.922-3.792-28.708-12.402
					c-6.998-2.686-10.138-10.302-6.937-16.72c6.13-12.29,15.625-29.612,20.136-28.925c5.669,0.86,1.566,18.354,1.566,18.354
					s9.448-22.197,18.411-19.264c3.995,1.315-5.615,22.45-6.587,24.674c1.512-2.022,13.498-18.152,18.087-14.764
					c4.589,3.438-6.587,22.5-7.775,24.523c1.296-1.618,11.824-14.309,16.953-10.113
					C2197.591,1091.243,2194.097,1104.135,2187.834,1122.066z"/>
			</g>
			<g display="inline">
				<path fill="#102048" d="M2501.204,1545.481c0,0,80.9-8.848,115.03-83.428l-89.749,5.056L2501.204,1545.481z"/>
				<g>
					<polygon fill="#E28B6D" points="2590.531,1462.895 2513.002,1510.929 2547.876,1562.161 2622.638,1511.224 					"/>
					<polygon fill="#102048" points="2670.588,1583.402 2622.638,1511.224 2547.876,1562.161 2560.615,1580.874 2553.031,1680.735 
											"/>
					
						<rect x="2577.067" y="1560.911" transform="matrix(0.0508 0.9987 -0.9987 0.0508 4026.418 -1076.6117)" fill="#FFFFFF" width="5.053" height="38.005"/>
				</g>
				<g>
					<polygon fill="#E28B6D" points="2369.741,1599.414 2284.628,1594.358 2284.628,1663.272 2376.191,1657.459 					"/>
					<polygon fill="#102048" points="2284.628,1663.272 2284.628,1679.471 2220.582,1743.517 2385.753,1743.517 2376.191,1657.459 
											"/>
					
						<rect x="2279.858" y="1688.736" transform="matrix(0.8648 0.5021 -0.5021 0.8648 1160.3835 -926.6679)" fill="#FFFFFF" width="41.939" height="5.058"/>
				</g>
				<path fill="#3A6BEA" d="M2365.444,1159.435c-1.315,31.349-1.567,64.417-1.011,97.738c0.505,28.922,1.567,58.046,3.084,86.512
					c7.281,141.424,24.118,266.667,24.118,266.667l-131.462,16.888c-62.344-434.838-21.894-618.582-21.894-618.582l57.288-11.68
					l50.866-10.365l57.034-11.629c-0.708,1.062-1.416,2.174-2.073,3.337c-8.697,14.208-15.573,33.119-20.883,55.568
					C2372.168,1068.827,2367.517,1112.21,2365.444,1159.435z"/>
				<path fill="#1F3C88" d="M2367.517,1343.685c-55.113-117.153-34.433-210.289-34.433-210.289l32.36,26.04
					c-1.315,31.349-1.567,64.417-1.011,97.738C2364.938,1286.095,2366,1315.219,2367.517,1343.685z"/>
				<path fill="#3A6BEA" d="M2616.234,1462.052c-63.203,24.017-115.03,83.428-115.03,83.428
					c-54.557-96.423-101.125-193.25-136.771-288.307c-29.68-79.08-51.776-156.946-64.569-232.284
					c-1.567-9.354-3.034-18.658-4.298-27.911c-0.152-0.859-0.303-1.77-0.405-2.629l51.271-7.736l54.962-8.292l27.759-4.197
					c2.983,17.697,6.978,36.203,11.781,55.265C2488.766,1219.706,2616.234,1462.052,2616.234,1462.052z"/>
				<g opacity="0.8">
					<path fill="#FFFFFF" d="M2505.015,1219.627c-0.802-1.998-1.605-3.994-2.405-6c-10.356-6.628-20.267-13.914-28.801-22.667
						c-23.834-24.447-35.887-60.66-31.453-94.513c1.365-10.425,4.31-20.659,8.573-30.348c-0.538-1.844-1.06-3.681-1.586-5.519
						c-5.417,11.183-9.148,23.145-10.75,35.373c-4.577,34.979,7.875,72.397,32.5,97.654
						C2481.11,1203.88,2492.862,1212.139,2505.015,1219.627z"/>
					<path fill="#FFFFFF" d="M2571.158,1370.631c-0.528-1.12-1.057-2.242-1.591-3.377c-13.949,5.696-30.66,6.676-48.005,7.662
						c-17.51,0.993-35.611,2.025-51.486,8.212c-16.125,6.291-28.637,17.51-37.724,31.27c0.649,1.338,1.306,2.677,1.958,4.015
						c8.773-14.006,21.06-25.475,37.144-31.749c15.317-5.97,33.113-6.982,50.321-7.96
						C2538.887,1377.73,2556.358,1376.705,2571.158,1370.631z"/>
					<path fill="#FFFFFF" d="M2268.286,1356.226c42.053,21.351,76.117,57.142,106.233,90.713c-0.171-2.066-0.34-4.154-0.51-6.243
						c-29.52-32.727-62.909-66.986-104.005-87.848c-13.119-6.658-26.624-11.546-40.099-14.677c0.08,1.319,0.159,2.642,0.241,3.97
						C2242.959,1345.214,2255.798,1349.889,2268.286,1356.226z"/>
					<path fill="#FFFFFF" d="M2384.586,1551.283c-10.521,2.505-22.03,1.881-31.53-0.352c-9.89-2.316-19.583-6.147-28.96-9.846
						c-9.984-3.945-20.314-8.024-31.034-10.364c-14.937-3.26-30.593-2.856-45.499,0.733c0.15,1.254,0.309,2.534,0.461,3.793
						c14.481-3.551,29.709-3.988,44.228-0.822c10.424,2.276,20.605,6.296,30.451,10.187c9.505,3.753,19.326,7.634,29.483,10.014
						c9.864,2.308,21.781,2.966,32.815,0.439C2384.866,1553.835,2384.726,1552.547,2384.586,1551.283z"/>
					<path fill="#FFFFFF" d="M2256.889,1195.31c1.383,26.476-10.633,52.531-30.389,69.749c0.051,1.603,0.113,3.253,0.168,4.872
						c22-17.918,35.504-46.153,34.003-74.819c-1.332-25.492-14.46-49.373-34.046-65.277c-0.061,1.574-0.121,3.168-0.178,4.774
						C2243.998,1149.813,2255.66,1171.846,2256.889,1195.31z"/>
				</g>
				<path opacity="0.4" fill="#1F3C88" d="M2440.934,1029.389c-20.124,3.641-40.602,4.804-60.422,4.5
					c-29.478-0.506-57.439-4.399-80.647-9c-36.708-7.23-61.585-16.231-61.585-16.231l57.288-11.68
					c-0.152-0.859-0.303-1.77-0.405-2.629l51.271-7.736l57.034-11.629c-0.708,1.062-1.416,2.174-2.073,3.337l27.759-4.197
					C2432.136,991.821,2436.13,1010.326,2440.934,1029.389z"/>
				<path fill="#1F3C88" d="M2364.433,1259.703c-1.042,0-2.015-0.647-2.38-1.679l-36.525-102.705l-43.896-26.501
					c-1.195-0.721-1.575-2.276-0.854-3.471c0.726-1.195,2.286-1.565,3.471-0.854l45.437,27.429l37.127,104.404
					c0.469,1.318-0.217,2.765-1.531,3.229C2365.001,1259.659,2364.715,1259.703,2364.433,1259.703z"/>
			</g>
			<g display="inline">
				<path fill="#1F3C88" d="M2450.642,993.742c-84.692,32.208-230.06,14.107-230.06,14.107
					c5.916-61.534,6.32-243.56,101.125-266.313l42.372,4.45c22.197,8.697,39.54,41.866,52.585,81.254
					c7.837,23.461,14.107,49.147,19.062,73.215C2446.141,950.764,2450.642,993.742,2450.642,993.742z"/>
				<path fill="#102048" d="M2435.726,900.454c-39.894-23.208-48.287-75.49-48.287-75.49l29.225,2.275
					C2424.501,850.701,2430.771,876.386,2435.726,900.454z"/>
				<g>
					<path fill="#1F3C88" d="M2364.053,745.961l-5.688,81.532l87.022,46.473l17.617-84.471
						C2386.494,744.297,2364.053,745.961,2364.053,745.961z"/>
					<path fill="#E28B6D" d="M2529.822,858.032c-2.073,3.135-4.399,6.068-7.028,8.747c-4.753,4.955-10.366,9-16.635,12.034
						c-9.253,4.5-19.365,6.422-29.377,5.815c-8.393-0.505-16.635-2.832-24.27-6.877l-7.129-3.792l17.646-84.49
						c4.702,2.831,9.607,5.764,14.815,8.95c0,0,68.866-97.333,73.922-95.411c4.551,1.668-3.186,16.736-4.753,19.719
						c2.983-4.399,25.332-37.163,31.298-34.888c4.753,1.769-1.264,16.332-2.023,18.101c1.365-1.972,13.349-19.618,20.579-15.371
						c3.337,1.972-9.556,21.085-10.82,23.006c1.567-1.517,15.876-15.371,19.416-11.225c3.64,4.196-10.264,20.73-11.832,22.601
						c1.416-1.264,13.652-11.933,17.545-6.775C2616.284,724.8,2553.688,821.627,2529.822,858.032z"/>
				</g>
				<path opacity="0.4" fill="#EB5D60" d="M2522.794,866.779c-4.753,4.955-10.366,9-16.635,12.034
					c-9.253,4.5-19.365,6.422-29.377,5.815c-0.455-1.82-0.657-3.691-0.657-5.612c0-13.753,11.174-24.927,24.927-24.927
					C2510.356,854.088,2518.496,859.195,2522.794,866.779z"/>
				<path fill="#86A7FF" d="M2311.698,990.724c-37.374,0-70.862-2.392-87.284-3.797c-1.121-0.096-1.798-0.156-1.98-0.163
					c-1.032-0.047-1.856-0.906-1.832-1.938c0.02-1.03,0.844-1.854,1.876-1.854c0.128,0,0.904,0.059,2.257,0.175
					c37.433,3.21,164.002,11.579,221.315-15.166c0.933-0.439,2.079-0.034,2.518,0.916c0.445,0.951,0.035,2.079-0.918,2.521
					C2414.853,986.722,2360.029,990.724,2311.698,990.724z"/>
				<path fill="#86A7FF" d="M2331.548,799.021c-20.112,0-29.004-13.285-29.133-13.48c-0.563-0.876-0.311-2.047,0.563-2.615
					c0.879-0.565,2.044-0.323,2.622,0.555c0.657,1.005,16.527,24.321,56.503,2.733c0.918-0.484,2.064-0.151,2.568,0.768
					c0.499,0.921,0.153,2.071-0.77,2.57C2350.919,796.562,2340.194,799.021,2331.548,799.021z"/>
			</g>
			<g display="inline">
				<path fill="#FBB81D" d="M2398.106,587.468c10.618-5.97,24.945-6.505,34.365,1.219c4.912,4.028,8.064,9.81,12.619,14.237
					c9.766,9.49,24.963,11.873,34.321,21.766c7.228,7.642,9.813,18.789,9.087,29.282c-0.726,10.494-4.41,20.536-8.325,30.299
					c-5.591,13.94-12.042,28.101-23.209,38.145c-4.267,3.838-9.266,7.038-14.859,8.324c-5.593,1.286-11.835,0.464-16.385-3.034
					c-4.803-3.692-7.166-9.875-7.584-15.918c-0.418-6.044,0.87-12.06,2.15-17.982c3.05,1.878,7.173,1.843,10.191-0.087
					c3.017-1.93,4.779-5.658,4.353-9.215c-0.722-6.031-6.67-9.825-11.997-12.743c-8.832-4.839-17.664-9.677-26.496-14.516
					c-5.169-2.832-10.45-5.752-14.34-10.181c-6.5-7.401-11.714-23.676-7.415-33.016
					C2379.354,603.683,2388.13,593.076,2398.106,587.468z"/>
				<path fill="#FBC343" d="M2293.266,636.619c0,0-0.541-59.906,73.856-44.122c12.594,2.672,23.603,9.459,31.694,19.473
					c12.105,14.981,19.863,77.964-14.748,95.437C2340.668,729.317,2293.266,636.619,2293.266,636.619z"/>
				<path fill="#E28B6D" d="M2370.348,687.182l-1.719,60.169c-0.455,15.27-12.54,27.658-27.809,28.467
					c-0.506,0.051-1.011,0.051-1.517,0.051c-17.09,0-30.692-14.663-29.225-31.905l0.101-0.961l3.944-45.708l5.006-0.91
					L2370.348,687.182z"/>
				<path fill="#102048" d="M2344.865,708.671c0,0-9.304,23.157-34.686,34.332l3.944-45.708l5.006-0.91L2344.865,708.671z"/>
				<path fill="#E28B6D" d="M2293.266,636.619c0,0-18.961,79.004,20.857,82.796c39.818,3.792,56.251-32.234,56.251-32.234
					l5.056-44.874l-24.649-35.394l-39.186,12.009L2293.266,636.619z"/>
				<path fill="#FBC343" d="M2293.266,636.619c0,0,36.633-20.549,49.93,6.952c9.27,19.171,23.385,29.705,37.29,23.385
					c13.905-6.32,2.528-51.827,2.528-51.827l-51.827-13.273l-30.969,17.697L2293.266,636.619z"/>
				
					<ellipse transform="matrix(0.866 0.5 -0.5 0.866 651.8598 -1095.3552)" fill="#E28B6D" cx="2369.897" cy="668.713" rx="14.307" ry="17.309"/>
				<path fill="#102048" d="M2365.949,675.595c-0.03,0-0.059-0.002-0.094-0.005c-0.691-0.049-1.215-0.654-1.165-1.35
					c0.321-4.486,3.155-12.971,11.584-12.971c0.696,0,1.264,0.565,1.264,1.264c0,0.699-0.568,1.264-1.264,1.264
					c-8.177,0-9.031,10.194-9.066,10.626C2367.159,675.086,2366.606,675.595,2365.949,675.595z"/>
				<g>
					<circle fill="#102048" cx="2296.072" cy="664.993" r="3.227"/>
					<circle fill="#102048" cx="2320.759" cy="664.744" r="3.582"/>
					<path fill="#102048" d="M2306.05,684.673c-2.8,0-4.701-0.879-5.654-2.62c-2.503-4.558,3.293-13.11,4.479-14.776
						c0.405-0.57,1.185-0.704,1.768-0.296c0.568,0.405,0.701,1.195,0.296,1.763c-3.081,4.32-5.555,9.861-4.325,12.093
						c0.528,0.968,1.916,1.392,4.069,1.291c0.025-0.002,0.05-0.002,0.069-0.002c0.667,0,1.225,0.523,1.264,1.197
						c0.035,0.696-0.499,1.291-1.195,1.328C2306.553,684.666,2306.296,684.673,2306.05,684.673z"/>
					<circle opacity="0.4" fill="#EB5D60" cx="2338.693" cy="679.202" r="11.298"/>
					<path fill="#102048" d="M2307.62,695.605c-3.412,0-5.772-1.185-5.955-1.281c-0.617-0.319-0.859-1.079-0.538-1.696
						c0.316-0.622,1.082-0.867,1.699-0.548c0.291,0.146,7.105,3.498,14.171-2.997c0.518-0.469,1.313-0.435,1.787,0.076
						c0.469,0.513,0.435,1.313-0.079,1.785C2314.7,694.623,2310.721,695.605,2307.62,695.605z"/>
					<path fill="#102048" d="M2303.153,657.864c-2.38-0.509-4.535-1.187-6.54-1.163c-1-0.067-1.929,0.064-2.877,0.316
						c-0.997,0.163-1.899,0.705-3.077,1.162l-0.121,0.047c-0.398,0.155-0.845-0.043-1-0.44c-0.077-0.198-0.066-0.411,0.013-0.592
						c0.563-1.274,1.513-2.465,2.848-3.208c1.314-0.72,2.87-1.098,4.346-1.04c2.95,0.268,5.562,1.493,7.279,3.72
						c0.259,0.336,0.197,0.818-0.139,1.078c-0.185,0.143-0.414,0.188-0.626,0.144L2303.153,657.864z"/>
					<path fill="#102048" d="M2312.521,656.767c1.75-3.029,4.953-5.147,8.751-5.548c1.879-0.127,3.844,0.289,5.43,1.207
						c1.622,0.894,2.853,2.209,3.74,3.676c0.218,0.361,0.103,0.83-0.258,1.048c-0.219,0.132-0.478,0.142-0.696,0.049l-0.081-0.035
						c-1.473-0.641-2.721-1.383-4.05-1.71c-1.272-0.468-2.55-0.595-3.826-0.487c-2.579,0.053-5.218,1.367-7.912,2.796l-0.091,0.048
						c-0.368,0.195-0.825,0.055-1.02-0.313C2312.381,657.261,2312.396,656.985,2312.521,656.767z"/>
				</g>
			</g>
		</g>
		<rect x="109.596" y="1740.99" fill="#33A968" width="2806.221" height="5.056"/>
	</g>
</g>
</svg>
